<?xml version="1.0" standalone="no"?>
<!DOCTYPE svg PUBLIC "-//W3C//DTD SVG 20010904//EN"
 "http://www.w3.org/TR/2001/REC-SVG-20010904/DTD/svg10.dtd">
<svg version="1.0" xmlns="http://www.w3.org/2000/svg"
 width="400.000000pt" height="400.000000pt" viewBox="0 0 400.000000 400.000000"
 preserveAspectRatio="xMidYMid meet">
<metadata>
Created by potrace 1.14, written by Peter Selinger 2001-2017
</metadata>
<g transform="translate(0.000000,400.000000) scale(0.100000,-0.100000)"
fill="#000000" stroke="none">
<path d="M0 3386 l0 -613 96 -7 c53 -4 100 -4 105 1 5 5 19 68 31 140 21 128
21 133 4 152 -10 11 -22 19 -26 16 -4 -2 -16 2 -26 10 -10 8 -26 15 -34 15 -8
0 -21 9 -28 20 -7 11 -19 20 -27 20 -9 0 -15 10 -16 23 -1 21 -1 21 -9 -3 l-8
-25 -7 22 c-4 13 -11 20 -16 17 -14 -8 -11 21 6 52 8 16 12 36 9 46 -2 9 0 19
6 23 5 3 10 14 10 23 0 12 -7 9 -25 -13 l-24 -30 21 45 c12 25 26 46 30 48 8
4 68 54 100 85 22 21 28 21 28 2 0 -8 5 -15 10 -15 6 0 10 9 10 20 0 26 25 36
46 19 12 -10 17 -10 23 0 4 6 34 14 67 17 32 2 71 7 87 9 33 6 34 -5 7 -75
-21 -53 -18 -61 13 -33 18 17 19 17 33 -2 30 -41 2 -175 -64 -302 -15 -29 -47
-92 -72 -140 -70 -139 -108 -193 -136 -193 -18 0 -25 -8 -33 -37 -6 -21 -11
-43 -11 -50 0 -6 -4 -14 -8 -17 -5 -3 -7 13 -5 35 3 37 2 38 -17 27 -11 -7
-20 -16 -20 -20 0 -13 -78 -48 -105 -48 l-25 0 0 -1243 0 -1244 25 -11 c14 -6
25 -18 25 -26 0 -8 14 -17 31 -21 29 -7 29 -8 12 -20 -11 -7 -35 -15 -54 -17
-30 -3 -34 -7 -37 -35 l-3 -33 994 0 995 0 7 40 c4 22 10 40 15 40 4 0 20 20
34 44 40 69 31 111 -16 69 -28 -25 -33 -8 -9 32 11 20 21 42 21 50 0 7 6 15
13 18 8 3 28 27 46 53 22 34 28 51 20 58 -12 12 -61 -39 -82 -86 -6 -16 -17
-28 -24 -28 -7 0 -20 -15 -29 -32 -19 -36 -57 -89 -91 -128 -13 -14 -23 -28
-23 -33 0 -4 -11 -13 -25 -19 -14 -6 -25 -17 -25 -25 0 -8 -12 -13 -31 -13
-17 0 -28 4 -24 10 3 5 15 10 27 10 15 0 18 3 10 13 -6 7 -7 18 -3 25 4 8 6
25 3 39 -4 23 -2 25 17 20 11 -3 19 -1 16 3 -3 5 -1 11 4 14 16 10 61 98 55
107 -8 14 -34 10 -40 -6 -4 -8 -12 -15 -20 -15 -11 0 -10 8 6 40 20 39 42 51
55 30 12 -19 33 -10 54 22 26 42 12 58 -26 28 l-28 -22 -3 21 c-3 20 -42 32
-42 12 0 -4 -13 -24 -30 -42 -16 -19 -35 -45 -42 -59 -7 -14 -32 -48 -55 -76
-24 -28 -43 -56 -43 -62 0 -21 -21 -23 -46 -3 -18 14 -34 18 -58 14 -45 -7
-51 8 -21 53 14 20 25 41 25 45 0 8 -43 13 -103 12 -11 0 -17 6 -15 16 3 12
14 15 48 13 25 -2 50 -8 57 -13 12 -11 63 36 63 58 0 7 5 13 10 13 11 0 14 33
3 43 -3 4 -12 2 -20 -5 -23 -19 -24 -3 -2 41 11 24 18 46 15 49 -4 3 -33 -22
-66 -56 -53 -56 -100 -82 -87 -49 8 22 -11 57 -28 51 -8 -3 -15 -12 -15 -20 0
-8 -10 -14 -22 -14 -21 1 -21 2 -5 11 9 5 17 19 17 29 0 11 14 35 30 53 17 19
30 44 30 56 0 33 -35 26 -67 -14 -15 -19 -32 -35 -37 -35 -5 0 -3 7 4 15 13
16 6 35 -14 35 -8 0 -31 -21 -51 -46 -32 -38 -40 -43 -47 -30 -12 21 -32 20
-53 0 -15 -16 -15 -19 9 -41 29 -26 33 -43 12 -43 -7 0 -16 9 -19 20 -6 24
-45 27 -53 5 -4 -8 -11 -15 -16 -15 -6 0 -2 12 8 28 10 15 23 36 28 47 6 11
21 35 34 52 35 49 8 49 -39 1 -22 -23 -47 -51 -55 -62 -14 -20 -14 -20 -14 2
0 12 5 22 10 22 6 0 10 4 10 10 0 5 16 32 35 59 19 26 35 57 35 67 -1 20 -13
8 -87 -82 -17 -21 -44 -54 -58 -71 -25 -31 -26 -53 -3 -53 5 0 23 -9 38 -20
20 -14 27 -26 23 -41 -4 -14 -11 -18 -22 -13 -9 3 -26 9 -39 12 -12 2 -27 13
-33 24 -6 11 -17 17 -25 14 -10 -4 -14 2 -14 19 0 22 -9 30 -32 26 -4 0 -5 6
-2 14 7 17 20 19 29 5 12 -19 40 -10 52 18 7 15 25 41 40 57 48 53 60 85 32
85 -4 0 -29 -26 -55 -57 -25 -32 -56 -64 -68 -73 -21 -14 -21 -14 -3 13 18 28
16 47 -7 47 -6 0 -29 -17 -50 -39 l-37 -38 26 -21 c15 -12 21 -23 15 -27 -5
-3 -10 -15 -10 -25 0 -16 -3 -15 -28 8 -27 26 -27 28 -13 60 11 25 12 35 3 44
-9 9 -21 3 -52 -27 -29 -28 -40 -34 -40 -22 0 9 5 17 10 17 6 0 10 9 10 20 0
13 -7 20 -19 20 -10 0 -21 9 -24 20 -3 12 -14 20 -26 20 -27 0 -27 -26 -1 -42
26 -16 26 -28 0 -28 -11 0 -20 5 -20 10 0 6 -7 10 -15 10 -21 0 -19 17 6 43
11 12 29 39 40 59 10 20 23 39 29 43 13 8 13 45 1 45 -6 0 -18 -12 -27 -27
-26 -42 -94 -99 -94 -79 0 10 -9 16 -25 16 -31 0 -31 9 -4 44 16 21 19 30 10
39 -9 9 -16 9 -31 -1 -27 -17 -32 -15 -20 7 12 24 -1 35 -30 26 -26 -8 -25 -5
10 40 34 43 37 60 13 74 -17 9 -17 10 0 29 16 17 16 20 2 32 -13 11 -21 8 -50
-20 -33 -32 -35 -33 -35 -11 0 15 -7 25 -21 28 l-20 6 21 22 c19 20 19 23 5
35 -13 11 -20 9 -43 -13 -30 -29 -42 -33 -42 -16 0 7 -7 17 -15 23 -13 9 -7
19 36 63 50 52 57 76 20 66 -11 -3 -67 -53 -124 -111 -83 -83 -111 -106 -135
-108 -25 -1 -32 3 -36 22 -4 13 -14 24 -24 25 -10 0 -12 3 -5 6 7 2 13 12 13
21 0 11 3 13 8 6 4 -6 17 -16 30 -23 20 -10 23 -9 31 12 5 14 39 55 75 93 36
38 66 74 66 81 0 26 -33 12 -73 -32 -24 -25 -46 -45 -51 -45 -5 0 -3 7 4 15
15 19 3 38 -21 32 -28 -8 -23 4 21 47 22 21 40 45 40 52 0 30 -38 11 -104 -51
-66 -63 -86 -76 -86 -55 0 6 -8 10 -17 10 -15 1 -13 3 5 13 12 7 20 16 16 20
-4 4 3 16 16 27 22 19 23 23 10 43 -12 20 -12 21 4 8 14 -12 19 -11 37 4 11
11 17 25 14 33 -3 9 0 12 9 9 7 -3 26 8 41 23 16 16 33 27 38 23 6 -3 7 -1 3
5 -3 5 -3 12 1 14 17 7 63 70 57 79 -3 5 2 9 10 9 21 0 31 21 15 31 -10 6 -21
0 -37 -16 -13 -14 -31 -24 -40 -24 -16 1 -16 2 1 6 9 2 17 9 17 15 0 5 -6 8
-13 5 -8 -3 -20 -1 -28 4 -10 6 -4 9 19 9 21 0 32 5 32 14 0 13 27 31 42 28 5
-1 8 4 8 12 0 13 37 16 65 5 6 -2 24 7 42 20 17 13 35 24 40 24 4 0 23 6 42
14 38 16 50 11 31 -12 -11 -13 -11 -19 2 -32 14 -14 17 -13 22 4 7 23 62 76
90 86 20 8 20 8 0 -15 -10 -13 -23 -26 -29 -30 -6 -5 -6 -11 2 -19 9 -9 24 1
65 43 54 56 125 93 158 83 10 -3 21 -2 23 2 3 5 40 9 81 8 42 0 78 5 80 10 3
10 6 5 21 -40 5 -16 8 -17 15 -5 8 13 12 11 25 -8 9 -12 20 -20 25 -17 5 3 20
0 35 -7 22 -10 28 -9 36 3 7 11 9 11 9 0 0 -11 3 -11 14 -2 12 10 20 9 40 -4
32 -21 35 -3 3 21 l-22 16 23 -5 c12 -3 20 -1 16 4 -3 5 -11 9 -19 9 -8 0 -17
4 -20 10 -4 6 2 7 17 1 13 -5 86 -32 163 -61 77 -29 164 -63 193 -76 29 -13
55 -24 58 -24 9 0 587 -230 679 -270 50 -22 144 -62 210 -89 679 -275 635
-256 635 -280 0 -10 7 -21 15 -25 22 -8 19 -23 -12 -65 -16 -20 -32 -44 -38
-53 -5 -9 -49 -74 -96 -145 -47 -70 -110 -165 -140 -211 -29 -45 -57 -82 -61
-82 -5 0 -8 -5 -8 -11 0 -5 -24 -43 -52 -83 -29 -39 -57 -79 -63 -88 -5 -9
-20 -30 -33 -47 l-23 -31 175 0 c111 0 176 4 176 10 0 6 -7 10 -15 10 -8 0
-15 7 -15 16 0 10 -6 14 -15 10 -17 -6 -21 24 -6 52 17 32 41 90 41 100 0 5
16 45 36 88 19 43 39 88 44 99 43 101 114 250 221 465 69 140 132 271 140 290
7 19 27 61 43 94 l31 58 140 58 c77 31 179 74 228 95 l87 37 0 99 0 99 -27
-11 c-87 -34 -307 -109 -310 -105 -2 1 72 30 164 63 l168 60 3 452 2 452 -30
-16 c-18 -10 -30 -11 -30 -5 0 6 13 16 30 21 l30 11 0 699 0 699 -2000 0
-2000 0 0 -614z m2390 75 c15 -30 12 -59 -7 -65 -10 -3 -40 -8 -68 -12 -27 -3
-83 -15 -122 -25 -93 -24 -93 -25 -93 12 0 26 3 31 20 26 11 -3 20 -1 20 5 0
6 8 7 17 4 9 -4 19 -2 23 4 8 12 155 68 182 69 10 1 22 -8 28 -18z m-977 -182
c15 -16 27 -38 27 -49 0 -21 34 -33 130 -45 191 -25 395 -146 457 -273 36 -73
39 -181 6 -253 -44 -99 -182 -196 -343 -242 -256 -73 -535 -72 -756 3 -103 35
-155 65 -213 122 -119 119 -128 274 -21 404 20 24 13 19 -18 -13 -33 -34 -56
-70 -67 -103 -14 -42 -21 -50 -41 -50 -17 0 -27 8 -34 25 -10 26 -84 70 -100
60 -6 -3 -10 -1 -10 4 0 23 -17 9 -45 -35 -16 -25 -31 -41 -33 -35 -6 17 151
366 183 406 15 19 15 19 9 -10 -4 -16 -17 -51 -30 -77 -13 -26 -24 -54 -24
-62 0 -21 69 -61 82 -48 8 8 8 15 0 25 -17 21 -4 27 42 21 32 -5 45 -2 55 10
12 14 11 19 -5 30 -27 20 -15 26 31 16 31 -7 43 -6 56 6 11 10 19 12 24 5 3
-6 15 -11 27 -11 16 0 19 4 14 25 -5 19 -1 28 19 41 30 20 32 49 5 64 -11 6
-20 17 -20 25 0 12 15 15 73 14 84 -2 170 6 188 16 22 14 124 23 214 18 84 -4
92 -7 118 -34z m2047 -39 c0 -5 -4 -10 -10 -10 -5 0 -10 5 -10 10 0 6 5 10 10
10 6 0 10 -4 10 -10z m420 -50 c0 -5 -4 -10 -9 -10 -6 0 -13 5 -16 10 -3 6 1
10 9 10 9 0 16 -4 16 -10z m-230 -60 c0 -5 -2 -10 -4 -10 -3 0 -8 5 -11 10 -3
6 -1 10 4 10 6 0 11 -4 11 -10z m-190 -60 c0 -5 -4 -10 -9 -10 -6 0 -13 5 -16
10 -3 6 1 10 9 10 9 0 16 -4 16 -10z m450 -36 c0 -8 -4 -12 -10 -9 -5 3 -10
10 -10 16 0 5 5 9 10 9 6 0 10 -7 10 -16z m-670 -24 c0 -5 -2 -10 -4 -10 -3 0
-8 5 -11 10 -3 6 -1 10 4 10 6 0 11 -4 11 -10z m-220 -60 c0 -5 -2 -10 -4 -10
-3 0 -8 5 -11 10 -3 6 -1 10 4 10 6 0 11 -4 11 -10z m470 -40 c0 -5 -7 -10
-15 -10 -8 0 -15 5 -15 10 0 6 7 10 15 10 8 0 15 -4 15 -10z m-229 -63 c-1
-12 -15 -9 -19 4 -3 6 1 10 8 8 6 -3 11 -8 11 -12z m134 -7 c3 -5 1 -10 -4
-10 -6 0 -11 5 -11 10 0 6 2 10 4 10 3 0 8 -4 11 -10z m-215 -80 c0 -5 -4 -10
-10 -10 -5 0 -10 5 -10 10 0 6 5 10 10 10 6 0 10 -4 10 -10z m304 -46 c21 -21
12 -34 -25 -34 -33 0 -51 26 -28 41 21 13 36 11 53 -7z m-1457 -169 c3 -20 3
-20 -6 0 -5 13 -8 0 -7 -40 0 -42 -7 -80 -24 -124 -26 -67 -80 -136 -101 -129
-7 2 -19 23 -27 47 -14 41 -13 44 18 107 18 35 41 66 51 69 10 4 18 10 16 14
-1 4 9 24 23 44 27 39 53 45 57 12z m-989 -416 c2 -15 -11 -53 -28 -88 -20
-40 -34 -84 -37 -120 -6 -60 2 -75 42 -83 12 -2 21 -13 23 -26 3 -19 -1 -22
-33 -22 -49 0 -59 28 -51 154 3 56 1 120 -5 148 -13 59 -5 70 51 66 29 -3 35
-7 38 -29z m2720 -126 c-21 -2 -57 -2 -80 0 -24 2 -7 4 37 4 44 0 63 -2 43 -4z
m-108 -447 c0 -6 -93 -37 -97 -32 -2 2 15 11 39 19 47 17 58 19 58 13z m-135
-51 c-16 -8 -37 -14 -45 -14 -8 0 1 7 20 14 46 18 64 17 25 0z m-75 -25 c-8
-5 -19 -10 -25 -10 -5 0 -3 5 5 10 8 5 20 10 25 10 6 0 3 -5 -5 -10z m-80 -30
c-8 -5 -19 -10 -25 -10 -5 0 -3 5 5 10 8 5 20 10 25 10 6 0 3 -5 -5 -10z m-53
-16 c-3 -3 -12 -4 -19 -1 -8 3 -5 6 6 6 11 1 17 -2 13 -5z m-3080 -66 c-3 -8
-6 -5 -6 6 -1 11 2 17 5 13 3 -3 4 -12 1 -19z m-7 -23 c0 -3 -18 -23 -40 -45
-22 -22 -40 -44 -40 -50 0 -5 -6 -10 -13 -10 -8 0 -30 -18 -51 -40 -20 -22
-44 -40 -54 -40 -14 0 -12 4 7 19 16 12 20 21 12 25 -6 4 -11 2 -11 -3 0 -6
-5 -11 -10 -11 -7 0 -7 6 0 20 7 13 21 20 40 20 23 0 30 4 30 20 0 11 5 20 10
20 6 0 10 -5 10 -12 0 -6 3 -8 6 -5 4 4 1 14 -6 22 -11 13 -10 18 6 29 10 8
22 12 26 10 5 -3 8 0 8 7 0 7 3 10 6 6 4 -3 13 0 21 8 14 14 43 21 43 10z
m-54 -290 c-3 -9 3 -20 14 -27 14 -9 16 -16 9 -30 -5 -10 -15 -18 -21 -18 -7
0 -7 5 1 14 10 12 8 17 -8 26 -18 9 -19 13 -8 30 14 24 21 26 13 5z m139 -175
c-3 -5 -11 -10 -16 -10 -6 0 -7 5 -4 10 3 6 11 10 16 10 6 0 7 -4 4 -10z m219
-95 c-15 -23 -34 -34 -34 -19 0 5 41 43 48 44 1 0 -5 -11 -14 -25z m-106 -25
c-7 -10 -14 -17 -17 -15 -4 4 18 35 25 35 2 0 -1 -9 -8 -20z m98 -85 c10 -8
28 -15 38 -15 19 0 19 0 1 -14 -16 -12 -22 -12 -41 1 -23 15 -40 43 -26 43 5
0 17 -7 28 -15z m58 -77 c18 1 19 0 1 -16 -13 -13 -19 -14 -22 -4 -3 6 -11 12
-19 12 -8 0 -14 5 -14 11 0 7 7 8 18 4 9 -4 26 -7 36 -7z m396 -333 c0 -14 -4
-25 -9 -25 -4 0 -6 11 -3 25 2 14 6 25 8 25 2 0 4 -11 4 -25z m838 -35 c-14
-22 -24 -19 -15 5 4 8 11 15 17 15 6 0 6 -7 -2 -20z m-24 -69 c3 -5 -3 -11
-14 -14 -13 -3 -20 0 -20 9 0 15 26 19 34 5z m192 -28 c-10 -10 -19 5 -10 18
6 11 8 11 12 0 2 -7 1 -15 -2 -18z m-1803 -69 c9 -3 17 -11 17 -19 0 -20 -61
-8 -85 17 l-20 20 35 -7 c19 -3 43 -9 53 -11z"/>
<path d="M1221 3170 c-59 -13 -159 -47 -197 -68 -69 -38 -179 -141 -199 -187
-7 -16 -29 -46 -48 -65 -19 -20 -37 -46 -41 -58 -4 -12 -11 -22 -16 -22 -12 0
-23 -49 -22 -103 1 -102 112 -193 307 -253 83 -26 103 -28 270 -28 142 -1 197
3 260 18 80 18 199 61 267 96 97 50 180 139 208 224 16 49 9 140 -15 191 -27
56 -109 134 -181 172 -110 59 -229 85 -399 89 -82 1 -170 -1 -194 -6z m-356
-316 c-66 -53 -77 -60 -69 -39 7 18 86 76 94 68 3 -3 -8 -16 -25 -29z m-115
-159 c0 -8 -4 -15 -10 -15 -5 0 -7 7 -4 15 4 8 8 15 10 15 2 0 4 -7 4 -15z"/>
<path d="M120 1290 c0 -5 5 -10 10 -10 6 0 10 5 10 10 0 6 -4 10 -10 10 -5 0
-10 -4 -10 -10z"/>
<path d="M756 1591 c-7 -11 22 -23 36 -15 6 4 5 10 -3 15 -18 11 -26 11 -33 0z"/>
<path d="M701 1528 c-22 -25 -31 -42 -24 -49 9 -9 50 25 53 46 1 6 6 9 10 8
13 -4 20 25 7 29 -7 3 -27 -13 -46 -34z"/>
<path d="M944 1487 c-23 -21 -34 -38 -30 -46 6 -9 12 -9 25 3 10 9 20 14 23
11 3 -3 11 8 18 25 18 44 7 47 -36 7z"/>
<path d="M587 1482 c-16 -18 -14 -32 5 -32 5 0 6 5 2 12 -5 7 -3 8 6 3 11 -7
29 9 30 28 0 14 -27 7 -43 -11z"/>
<path d="M1001 1476 c-13 -13 -19 -26 -13 -30 11 -6 62 30 62 45 0 16 -24 8
-49 -15z"/>
<path d="M645 1481 c-9 -15 8 -35 24 -30 8 3 7 10 -2 23 -10 14 -16 16 -22 7z"/>
<path d="M342 1468 c-7 -7 -12 -17 -12 -24 0 -21 28 -23 46 -3 16 17 16 22 4
29 -20 13 -24 12 -38 -2z"/>
<path d="M505 1469 c-4 -5 -18 -14 -31 -19 -24 -10 -24 -40 0 -40 13 0 66 51
66 63 0 11 -28 8 -35 -4z"/>
<path d="M611 1426 c-9 -11 -9 -15 1 -19 7 -3 3 -6 -8 -6 -12 -1 -34 -16 -50
-34 -16 -19 -39 -39 -52 -46 -24 -13 -21 -31 5 -31 14 0 143 127 143 143 0 12
-27 8 -39 -7z"/>
<path d="M1175 1431 c-3 -6 -11 -8 -17 -5 -7 5 -9 1 -5 -9 3 -9 -1 -23 -9 -32
-26 -26 3 -17 32 10 19 18 24 29 17 36 -8 8 -13 7 -18 0z"/>
<path d="M467 1357 c-36 -39 -64 -74 -61 -79 10 -16 34 -7 51 19 24 37 91 102
98 95 3 -3 5 2 5 12 0 9 5 14 10 11 6 -3 10 -2 10 3 0 5 -11 10 -23 10 -17 0
-45 -23 -90 -71z"/>
<path d="M978 1424 c-4 -3 -12 -6 -20 -7 -7 -2 -35 -27 -63 -57 -27 -30 -54
-58 -60 -62 -5 -4 -2 -10 8 -14 18 -6 69 39 104 92 8 13 23 26 34 29 10 4 19
11 19 16 0 10 -13 12 -22 3z"/>
<path d="M843 1383 c-36 -40 -41 -53 -19 -53 15 0 86 68 86 83 0 20 -39 3 -67
-30z"/>
<path d="M410 1375 c-19 -19 -40 -35 -47 -35 -7 0 -13 -5 -13 -11 0 -11 -25
-39 -35 -39 -4 0 -13 -7 -21 -15 -14 -13 -13 -16 8 -24 17 -6 28 -4 40 8 81
76 108 109 108 129 0 12 -1 22 -3 22 -2 0 -18 -16 -37 -35z"/>
<path d="M1221 1396 c-9 -11 -9 -15 1 -18 12 -4 38 14 38 26 0 12 -28 6 -39
-8z"/>
<path d="M1201 1361 c-7 -5 -11 -15 -9 -22 3 -10 8 -7 17 9 13 24 12 26 -8 13z"/>
<path d="M940 1338 c-1 -17 -75 -98 -89 -98 -17 0 -13 -17 6 -24 11 -4 22 -1
29 8 6 9 16 16 23 16 6 0 11 6 11 13 1 6 14 28 30 47 17 19 30 38 30 42 0 13
-40 9 -40 -4z"/>
<path d="M1087 1325 c-10 -14 -15 -30 -12 -35 3 -5 0 -7 -8 -4 -18 7 -33 -14
-19 -28 11 -11 52 35 52 58 0 8 7 14 16 14 8 0 12 5 9 10 -9 15 -18 12 -38
-15z"/>
<path d="M1386 1343 c-11 -11 -6 -23 8 -23 8 0 17 4 20 9 7 10 -19 23 -28 14z"/>
<path d="M1165 1320 c-3 -5 1 -10 10 -10 9 0 13 5 10 10 -3 6 -8 10 -10 10 -2
0 -7 -4 -10 -10z"/>
<path d="M749 1281 c-17 -22 -36 -38 -40 -35 -5 3 -9 -2 -9 -11 0 -9 -4 -13
-10 -10 -15 9 -12 -21 4 -34 11 -9 23 0 62 45 27 31 49 61 49 67 0 25 -26 15
-56 -22z"/>
<path d="M1340 1278 c0 -6 -19 -28 -42 -50 -29 -26 -38 -42 -31 -49 7 -7 20 2
42 28 17 21 41 48 54 61 l22 22 -23 0 c-12 0 -22 -5 -22 -12z"/>
<path d="M1091 1243 c-17 -21 -31 -41 -31 -45 0 -16 31 -8 37 10 3 9 14 25 25
35 10 10 18 22 18 27 0 20 -19 9 -49 -27z"/>
<path d="M1548 1261 c-23 -23 -23 -30 2 -24 11 3 20 14 20 24 0 23 0 23 -22 0z"/>
<path d="M363 1263 c-7 -3 -13 -9 -13 -15 0 -5 -28 -39 -62 -75 -72 -74 -78
-83 -49 -83 12 0 35 16 52 35 17 19 37 35 45 35 8 0 14 7 14 15 0 8 11 25 25
37 14 12 25 27 25 34 0 14 -20 23 -37 17z"/>
<path d="M802 1258 c-14 -14 -16 -38 -4 -38 12 0 32 23 32 37 0 16 -12 17 -28
1z"/>
<path d="M457 1253 c-10 -3 -31 -18 -46 -34 -15 -16 -30 -26 -34 -23 -3 3 -8
-5 -13 -18 -4 -12 -14 -28 -22 -34 -14 -10 -13 -12 8 -19 17 -5 26 -3 33 11 6
11 30 39 54 63 24 24 43 48 43 53 0 4 -1 7 -2 7 -2 -1 -11 -3 -21 -6z"/>
<path d="M1584 1225 c-13 -40 -12 -41 16 -18 14 13 17 20 8 30 -8 11 -7 12 7
7 13 -5 16 -4 11 4 -13 22 -31 12 -42 -23z"/>
<path d="M261 1229 c-11 -18 -11 -23 1 -30 19 -12 22 -11 37 12 11 18 11 23
-1 30 -19 12 -22 11 -37 -12z"/>
<path d="M3976 1199 c-15 -43 -15 -53 -4 -60 7 -5 18 -9 23 -9 6 0 4 4 -4 9
-11 7 -11 9 0 13 12 4 11 8 -1 23 -8 10 -10 16 -4 12 7 -4 11 6 12 28 1 19 0
35 -1 35 -1 0 -11 -23 -21 -51z"/>
<path d="M997 1234 c-8 -9 1 -24 14 -24 6 0 7 5 3 12 -5 8 -2 9 10 5 10 -4 15
-3 11 3 -7 11 -28 13 -38 4z"/>
<path d="M1657 1220 c-13 -15 -14 -20 -3 -20 7 0 16 9 19 20 3 11 4 20 3 20
-1 0 -9 -9 -19 -20z"/>
<path d="M1515 1210 c3 -5 8 -10 11 -10 2 0 4 5 4 10 0 6 -5 10 -11 10 -5 0
-7 -4 -4 -10z"/>
<path d="M743 1195 c-3 -9 -2 -19 1 -23 8 -8 38 10 44 26 6 18 -38 14 -45 -3z"/>
<path d="M1725 1200 c3 -5 8 -10 11 -10 2 0 4 5 4 10 0 6 -5 10 -11 10 -5 0
-7 -4 -4 -10z"/>
<path d="M823 1193 c-18 -6 -16 -23 1 -23 17 0 30 16 19 23 -5 2 -14 2 -20 0z"/>
<path d="M1405 1190 c3 -5 8 -10 11 -10 2 0 4 5 4 10 0 6 -5 10 -11 10 -5 0
-7 -4 -4 -10z"/>
<path d="M1770 1180 c0 -5 7 -10 15 -10 8 0 15 5 15 10 0 6 -7 10 -15 10 -8 0
-15 -4 -15 -10z"/>
<path d="M960 1169 c0 -5 -5 -7 -10 -4 -10 6 -35 -44 -26 -53 6 -5 55 49 56
61 0 4 -4 7 -10 7 -5 0 -10 -5 -10 -11z"/>
<path d="M1555 1170 c-3 -5 -1 -10 4 -10 6 0 11 5 11 10 0 6 -2 10 -4 10 -3 0
-8 -4 -11 -10z"/>
<path d="M1822 1146 c-15 -18 -18 -26 -8 -26 17 0 39 26 34 40 -2 6 -13 0 -26
-14z"/>
<path d="M720 1080 c-40 -44 -77 -77 -81 -74 -5 3 -9 -1 -9 -10 0 -8 -6 -16
-12 -19 -10 -3 -9 -9 3 -22 15 -16 18 -15 37 9 11 14 25 26 32 26 6 0 9 4 6 8
-3 5 22 38 54 73 55 59 72 89 52 89 -5 0 -42 -36 -82 -80z"/>
<path d="M996 1125 c-15 -19 -24 -35 -20 -35 15 0 74 52 69 61 -10 16 -22 10
-49 -26z"/>
<path d="M613 1136 c-4 -8 -36 -44 -71 -81 -62 -67 -70 -91 -26 -82 31 5 30 0
-2 -34 l-26 -27 22 -12 c12 -6 23 -10 24 -8 27 43 185 231 210 249 4 4 -3 7
-18 7 -25 0 -67 -39 -138 -127 -16 -19 -28 -27 -28 -19 0 8 23 39 50 70 28 31
50 61 50 67 0 16 -38 13 -47 -3z"/>
<path d="M1863 1108 c-15 -24 -43 -60 -62 -80 -27 -29 -32 -41 -23 -50 8 -8
15 -3 29 20 10 18 21 32 26 32 4 0 7 6 7 13 0 7 16 30 35 51 35 39 43 56 25
56 -5 0 -22 -19 -37 -42z"/>
<path d="M114 1132 c3 -5 0 -12 -6 -15 -7 -2 -10 -7 -7 -11 3 -4 12 0 18 8 9
11 9 16 0 22 -7 4 -9 3 -5 -4z"/>
<path d="M1210 1126 c0 -8 -14 -29 -31 -47 -52 -56 -139 -167 -139 -178 0 -30
48 17 136 136 30 39 58 75 64 78 17 10 11 25 -10 25 -11 0 -20 -6 -20 -14z"/>
<path d="M1370 1130 c19 -13 30 -13 30 0 0 6 -10 10 -22 10 -19 0 -20 -2 -8
-10z"/>
<path d="M1436 1119 c-11 -10 -17 -21 -14 -25 3 -3 17 6 31 20 15 14 21 26 14
25 -7 0 -21 -9 -31 -20z"/>
<path d="M1507 1123 c-12 -11 -8 -23 7 -23 8 0 16 7 20 15 5 15 -14 21 -27 8z"/>
<path d="M1340 1090 c-29 -31 -38 -50 -22 -50 11 0 65 71 58 77 -3 3 -19 -9
-36 -27z"/>
<path d="M1785 1100 c-3 -5 -2 -10 4 -10 5 0 13 5 16 10 3 6 2 10 -4 10 -5 0
-13 -4 -16 -10z"/>
<path d="M1518 1043 c-24 -32 -47 -66 -51 -75 -3 -10 -13 -18 -22 -18 -8 0
-15 -4 -15 -10 0 -5 6 -10 13 -10 17 1 47 25 47 38 0 6 6 15 13 19 15 10 77
94 77 105 0 20 -20 4 -62 -49z"/>
<path d="M870 1065 c-13 -14 -20 -28 -15 -32 4 -5 10 -2 12 5 3 7 14 22 26 33
11 10 16 19 11 19 -6 0 -21 -11 -34 -25z"/>
<path d="M1447 1045 c-10 -14 -15 -30 -12 -35 3 -6 0 -10 -8 -10 -8 0 -26 -18
-41 -40 -33 -50 -23 -51 22 -2 54 58 82 98 75 105 -10 11 -17 8 -36 -18z"/>
<path d="M1596 1045 c-9 -26 -7 -32 5 -12 6 10 9 21 6 23 -2 3 -7 -2 -11 -11z"/>
<path d="M1677 1053 c-10 -9 -9 -23 1 -23 5 0 9 7 9 15 0 17 -1 18 -10 8z"/>
<path d="M918 1043 c-10 -2 -18 -13 -18 -23 0 -10 -6 -21 -12 -23 -10 -4 -10
-6 -1 -6 15 -1 63 38 63 51 0 8 -4 9 -32 1z"/>
<path d="M1366 1035 c-3 -9 0 -15 8 -15 7 0 19 7 26 15 10 12 9 15 -8 15 -11
0 -22 -7 -26 -15z"/>
<path d="M1713 1002 c-12 -15 -35 -44 -52 -66 -34 -43 -38 -56 -17 -56 7 0 21
16 30 35 9 19 22 35 29 35 8 0 6 4 -3 11 -12 9 -11 10 7 6 14 -3 20 -1 17 8
-3 6 2 18 11 25 16 13 20 30 8 30 -5 0 -18 -13 -30 -28z"/>
<path d="M817 1002 c-10 -10 -17 -22 -17 -27 0 -5 9 1 21 14 12 12 19 24 17
27 -3 2 -12 -4 -21 -14z"/>
<path d="M1556 1003 c-11 -11 -6 -23 9 -23 8 0 15 4 15 9 0 13 -16 22 -24 14z"/>
<path d="M1636 995 c-3 -8 -1 -15 3 -15 5 0 11 7 15 15 3 8 1 15 -3 15 -5 0
-11 -7 -15 -15z"/>
<path d="M1250 990 c0 -5 7 -10 15 -10 8 0 15 5 15 10 0 6 -7 10 -15 10 -8 0
-15 -4 -15 -10z"/>
<path d="M2270 975 c-7 -8 -9 -15 -5 -15 5 0 -2 -9 -14 -19 -13 -11 -18 -22
-12 -26 12 -7 72 56 65 67 -8 12 -20 9 -34 -7z"/>
<path d="M1597 974 c-9 -10 2 -24 18 -24 9 0 12 6 9 15 -6 16 -17 19 -27 9z"/>
<path d="M1221 944 c-19 -25 -20 -51 -1 -39 13 8 40 65 30 65 -5 0 -18 -12
-29 -26z"/>
<path d="M835 950 c3 -5 13 -10 21 -10 8 0 12 5 9 10 -3 6 -13 10 -21 10 -8 0
-12 -4 -9 -10z"/>
<path d="M1300 950 c0 -5 7 -10 16 -10 8 0 12 5 9 10 -3 6 -10 10 -16 10 -5 0
-9 -4 -9 -10z"/>
<path d="M2325 949 c-4 -6 -5 -13 -2 -16 7 -7 27 6 27 18 0 12 -17 12 -25 -2z"/>
<path d="M713 891 c-28 -31 -48 -60 -43 -64 10 -11 50 13 50 30 0 6 4 13 8 15
4 2 18 17 30 35 38 54 10 44 -45 -16z"/>
<path d="M580 926 c0 -10 9 -16 21 -16 24 0 21 23 -4 28 -10 2 -17 -3 -17 -12z"/>
<path d="M888 910 c-16 -17 -28 -34 -28 -38 -1 -4 -18 -20 -39 -37 -52 -40
-67 -63 -46 -71 17 -7 69 41 60 55 -2 5 7 17 20 27 37 27 88 94 73 94 -7 0
-25 -14 -40 -30z"/>
<path d="M1490 905 c-12 -20 -29 -42 -37 -50 -8 -9 -13 -20 -11 -27 3 -8 8 -7
16 3 6 8 25 30 42 50 16 20 30 42 30 48 0 22 -19 10 -40 -24z"/>
<path d="M1710 920 c0 -6 -18 -35 -40 -64 -30 -42 -36 -55 -25 -60 10 -3 25 9
42 37 16 23 30 44 33 47 3 3 14 15 24 28 19 22 19 22 -7 22 -15 0 -27 -5 -27
-10z"/>
<path d="M1947 919 c7 -7 15 -10 18 -7 3 3 -2 9 -12 12 -14 6 -15 5 -6 -5z"/>
<path d="M1170 902 c0 -12 19 -26 26 -19 2 2 -2 10 -11 17 -9 8 -15 8 -15 2z"/>
<path d="M1241 878 c-22 -23 -28 -35 -20 -42 12 -12 49 26 49 49 0 7 6 16 13
18 7 4 8 6 1 6 -7 1 -26 -13 -43 -31z"/>
<path d="M757 852 c-40 -41 -45 -52 -22 -52 8 0 22 12 32 28 10 15 23 31 30
35 14 9 18 27 5 27 -4 0 -25 -17 -45 -38z"/>
<path d="M1537 872 c-20 -21 -22 -42 -6 -42 14 0 38 30 39 48 0 17 -14 15 -33
-6z"/>
<path d="M2513 883 c-13 -2 -23 -11 -23 -18 0 -25 18 -25 34 0 9 14 15 24 14
24 -2 -1 -13 -4 -25 -6z"/>
<path d="M1315 870 c-3 -5 -2 -10 4 -10 5 0 13 5 16 10 3 6 2 10 -4 10 -5 0
-13 -4 -16 -10z"/>
<path d="M2183 848 c-32 -37 -36 -48 -16 -48 12 0 25 13 35 35 18 40 11 45
-19 13z"/>
<path d="M953 810 c-20 -28 -45 -53 -55 -56 -23 -7 -23 -34 0 -34 19 1 52 23
52 36 0 8 15 28 60 81 14 17 13 23 -5 23 -8 0 -31 -23 -52 -50z"/>
<path d="M1116 816 c-38 -46 -42 -56 -26 -56 17 0 80 75 80 95 0 16 -22 0 -54
-39z"/>
<path d="M1360 835 c-13 -14 -20 -28 -17 -32 8 -7 57 35 57 49 0 15 -16 8 -40
-17z"/>
<path d="M1563 813 c-44 -48 -46 -63 -11 -63 12 0 18 3 15 6 -4 4 1 14 11 23
39 35 57 81 33 81 -4 0 -25 -21 -48 -47z"/>
<path d="M2236 821 c-11 -12 -16 -24 -12 -28 9 -9 39 22 34 37 -2 7 -10 4 -22
-9z"/>
<path d="M2460 830 c0 -5 5 -10 10 -10 6 0 10 5 10 10 0 6 -4 10 -10 10 -5 0
-10 -4 -10 -10z"/>
<path d="M2610 820 c-11 -11 -20 -28 -20 -37 0 -14 6 -11 25 12 36 45 33 63
-5 25z"/>
<path d="M1256 811 c-12 -13 -14 -21 -6 -26 9 -6 50 28 50 42 0 11 -29 0 -44
-16z"/>
<path d="M1860 809 c0 -5 5 -7 10 -4 6 3 10 8 10 11 0 2 -4 4 -10 4 -5 0 -10
-5 -10 -11z"/>
<path d="M2680 805 c0 -9 6 -12 15 -9 8 4 15 10 15 15 0 5 -7 9 -15 9 -8 0
-15 -7 -15 -15z"/>
<path d="M612 785 c-23 -24 -22 -45 2 -45 20 0 49 37 43 55 -9 21 -18 19 -45
-10z"/>
<path d="M1468 778 c-15 -18 -24 -36 -21 -41 6 -11 33 12 33 28 0 7 7 15 15
19 8 3 15 10 15 16 0 18 -16 10 -42 -22z"/>
<path d="M996 774 c-29 -29 -33 -44 -13 -44 16 0 57 42 57 58 0 19 -15 14 -44
-14z"/>
<path d="M1367 750 c-23 -31 -33 -51 -27 -55 6 -4 12 -5 14 -4 1 2 16 22 32
44 43 56 47 65 32 65 -7 -1 -30 -23 -51 -50z"/>
<path d="M1115 723 c-55 -73 -61 -83 -47 -83 9 0 122 135 122 145 0 3 -6 5
-12 5 -7 -1 -35 -31 -63 -67z"/>
<path d="M1830 780 c-8 -5 -11 -12 -7 -16 4 -4 15 0 24 9 18 18 8 23 -17 7z"/>
<path d="M1315 770 c-3 -5 -1 -10 4 -10 6 0 11 5 11 10 0 6 -2 10 -4 10 -3 0
-8 -4 -11 -10z"/>
<path d="M2660 769 c0 -5 5 -7 10 -4 6 3 10 8 10 11 0 2 -4 4 -10 4 -5 0 -10
-5 -10 -11z"/>
<path d="M665 750 c-16 -18 -17 -20 -1 -26 17 -7 49 24 40 38 -8 13 -20 9 -39
-12z"/>
<path d="M2125 760 c3 -5 13 -10 21 -10 8 0 12 5 9 10 -3 6 -13 10 -21 10 -8
0 -12 -4 -9 -10z"/>
<path d="M2174 759 c-8 -14 14 -29 33 -22 18 7 17 20 -3 27 -21 8 -22 8 -30
-5z"/>
<path d="M1551 707 c-27 -48 -56 -75 -68 -64 -2 2 6 15 17 30 22 28 26 51 8
45 -6 -2 -25 -21 -42 -41 l-30 -38 27 -24 c14 -14 33 -25 42 -25 18 0 54 38
55 56 0 6 13 25 29 42 38 39 43 66 15 70 -17 2 -29 -9 -53 -51z"/>
<path d="M2400 729 c-26 -36 -17 -54 11 -20 17 21 26 51 15 51 -3 0 -14 -14
-26 -31z"/>
<path d="M1190 713 l-22 -38 31 29 c31 30 39 46 22 46 -5 0 -19 -17 -31 -37z"/>
<path d="M1285 740 c-3 -5 1 -10 9 -10 9 0 16 5 16 10 0 6 -4 10 -9 10 -6 0
-13 -4 -16 -10z"/>
<path d="M1805 740 c-3 -5 -1 -10 4 -10 6 0 11 5 11 10 0 6 -2 10 -4 10 -3 0
-8 -4 -11 -10z"/>
<path d="M3729 625 c-33 -69 -84 -177 -114 -240 -29 -63 -56 -115 -59 -115 -3
0 -3 7 0 15 4 10 0 15 -15 15 -17 0 -34 -27 -94 -150 l-74 -150 82 0 c91 0 91
0 110 84 11 53 170 452 187 471 15 17 8 27 -8 11 -30 -31 -34 -15 -8 34 14 28
30 50 35 50 4 0 6 6 3 14 -3 7 4 30 15 50 11 20 16 36 10 36 -6 0 -37 -56 -70
-125z m-188 -392 c-12 -20 -14 -14 -5 12 4 9 9 14 11 11 3 -2 0 -13 -6 -23z"/>
<path d="M687 688 c-34 -38 -44 -55 -36 -64 15 -18 37 -7 55 28 8 16 24 38 35
49 10 10 19 24 19 29 0 24 -30 6 -73 -42z"/>
<path d="M1017 704 c-25 -29 -26 -34 -11 -34 18 0 64 45 64 62 0 18 -27 5 -53
-28z"/>
<path d="M2092 718 c-7 -7 -12 -18 -12 -25 0 -7 -5 -13 -10 -13 -6 0 -13 -8
-17 -17 -3 -10 -13 -26 -21 -35 -13 -16 -13 -18 0 -18 13 0 88 96 88 113 0 11
-15 8 -28 -5z"/>
<path d="M945 711 c-7 -12 12 -24 25 -16 11 7 4 25 -10 25 -5 0 -11 -4 -15 -9z"/>
<path d="M3806 695 c-9 -26 -7 -32 5 -12 6 10 9 21 6 23 -2 3 -7 -2 -11 -11z"/>
<path d="M1236 691 c-3 -5 1 -11 9 -15 15 -6 29 7 18 18 -9 9 -21 8 -27 -3z"/>
<path d="M1396 685 c-3 -8 -13 -15 -22 -15 -20 0 -13 -24 9 -28 9 -2 22 9 32
27 13 26 13 31 1 31 -7 0 -16 -7 -20 -15z"/>
<path d="M2509 693 c-1 -5 -1 -11 0 -15 0 -4 -24 -44 -55 -89 -41 -58 -53 -84
-45 -92 6 -6 12 -9 14 -6 7 10 63 95 72 111 30 49 44 81 39 89 -6 11 -24 12
-25 2z"/>
<path d="M916 682 c-2 -4 -1 -14 4 -22 7 -11 12 -12 21 -3 6 6 8 16 5 22 -8
13 -23 14 -30 3z"/>
<path d="M1725 638 c-70 -91 -88 -119 -78 -129 6 -6 26 12 53 48 24 32 47 60
52 61 4 2 8 9 8 17 0 7 7 18 15 25 18 15 20 30 3 30 -7 -1 -31 -24 -53 -52z"/>
<path d="M2112 646 c-34 -47 -40 -66 -19 -66 22 1 81 110 59 110 -5 0 -23 -20
-40 -44z"/>
<path d="M808 642 c-40 -40 -48 -62 -24 -62 17 0 76 68 76 87 0 21 -13 15 -52
-25z"/>
<path d="M1142 669 c2 -7 10 -15 17 -17 8 -3 12 1 9 9 -2 7 -10 15 -17 17 -8
3 -12 -1 -9 -9z"/>
<path d="M1826 665 c-18 -18 -21 -35 -6 -35 11 0 34 39 27 46 -3 3 -12 -2 -21
-11z"/>
<path d="M3875 671 c-3 -5 -1 -12 5 -16 5 -3 10 1 10 9 0 18 -6 21 -15 7z"/>
<path d="M1286 644 c-12 -17 -15 -29 -8 -36 7 -7 16 -1 28 16 11 18 14 30 7
37 -7 7 -16 1 -27 -17z"/>
<path d="M2340 655 c-10 -12 -9 -16 5 -21 17 -7 38 13 29 28 -8 12 -20 10 -34
-7z"/>
<path d="M882 633 c4 -21 33 -25 33 -3 0 8 -8 16 -18 18 -14 3 -18 -1 -15 -15z"/>
<path d="M927 607 c-21 -18 -24 -26 -15 -35 18 -18 34 -15 52 13 32 48 11 61
-37 22z"/>
<path d="M1011 606 c-23 -24 -21 -46 3 -46 18 0 42 48 30 60 -7 7 -18 2 -33
-14z"/>
<path d="M1782 608 c-16 -16 -15 -28 3 -28 8 0 15 2 15 4 0 2 3 11 6 20 7 19
-7 21 -24 4z"/>
<path d="M2502 545 c-32 -48 -46 -77 -39 -82 6 -4 13 -1 15 6 3 8 13 22 23 32
11 11 19 23 19 28 0 4 11 24 25 44 13 20 20 39 15 42 -4 3 -31 -29 -58 -70z"/>
<path d="M3766 603 c-6 -14 -5 -15 5 -6 7 7 10 15 7 18 -3 3 -9 -2 -12 -12z"/>
<path d="M1307 565 c-31 -36 -34 -45 -20 -45 23 0 79 68 66 81 -5 5 -24 -9
-46 -36z"/>
<path d="M1402 598 c-18 -18 -14 -38 7 -38 17 0 31 18 31 41 0 13 -24 11 -38
-3z"/>
<path d="M2314 602 c-12 -8 -74 -97 -74 -106 0 -3 6 -6 13 -6 6 0 25 23 42 50
16 28 33 50 37 50 4 0 8 5 8 10 0 12 -11 13 -26 2z"/>
<path d="M821 566 c-22 -23 -22 -46 0 -46 12 0 59 49 59 61 0 18 -37 8 -59
-15z"/>
<path d="M1986 562 c-15 -16 -75 -95 -89 -118 -4 -7 -1 -14 7 -17 16 -6 120
139 107 148 -5 2 -16 -3 -25 -13z"/>
<path d="M885 551 c-8 -15 3 -31 21 -31 9 0 14 7 12 17 -4 20 -24 28 -33 14z"/>
<path d="M2036 536 c-20 -31 -20 -36 -1 -36 19 0 40 39 27 52 -6 6 -15 0 -26
-16z"/>
<path d="M3826 545 c-9 -26 -7 -32 5 -12 6 10 9 21 6 23 -2 3 -7 -2 -11 -11z"/>
<path d="M1706 506 c-11 -17 -12 -27 -5 -32 13 -8 25 4 34 34 9 29 -9 28 -29
-2z"/>
<path d="M3781 455 c-24 -41 -30 -90 -8 -65 15 18 41 89 34 96 -2 3 -14 -11
-26 -31z"/>
<path d="M1975 450 c-16 -18 -17 -20 -1 -26 17 -7 49 24 40 38 -8 13 -20 9
-39 -12z"/>
<path d="M2200 456 c0 -10 9 -16 21 -16 24 0 21 23 -4 28 -10 2 -17 -3 -17
-12z"/>
<path d="M2349 428 c-16 -18 -29 -37 -29 -43 -1 -5 -14 -26 -30 -45 -35 -40
-38 -60 -10 -60 28 0 25 -26 -6 -67 -31 -41 -42 -37 -19 6 14 28 14 32 1 37
-22 8 -29 2 -90 -89 -31 -46 -65 -93 -76 -105 -12 -12 -18 -22 -14 -22 4 0 -1
-9 -10 -19 -18 -20 -17 -20 59 -20 62 0 80 4 96 20 10 10 19 26 19 34 0 9 9
25 20 37 10 11 29 39 40 62 12 23 30 58 41 79 21 40 17 62 -8 53 -30 -12 -32
7 -6 52 15 26 37 61 50 78 40 54 19 63 -28 12z m-138 -301 c-10 -9 -11 -8 -5
6 3 10 9 15 12 12 3 -3 0 -11 -7 -18z m-5 -28 c3 -6 0 -15 -7 -20 -22 -14 -28
-11 -22 11 6 22 18 26 29 9z"/>
<path d="M1650 436 c0 -2 7 -6 15 -10 8 -3 15 -1 15 4 0 6 -7 10 -15 10 -8 0
-15 -2 -15 -4z"/>
<path d="M2391 379 c-34 -49 -38 -61 -25 -66 21 -8 38 12 63 69 29 69 10 67
-38 -3z"/>
<path d="M2145 365 c-26 -33 -26 -55 -1 -55 10 0 26 25 54 83 2 4 -3 7 -12 7
-8 0 -27 -16 -41 -35z"/>
<path d="M3973 385 c-8 -22 6 -33 17 -15 13 20 12 30 0 30 -6 0 -13 -7 -17
-15z"/>
<path d="M3731 338 c-37 -89 -143 -297 -156 -308 -25 -21 -17 -30 29 -30 l44
0 7 48 c4 26 18 74 31 108 13 33 24 72 24 87 0 14 5 29 11 32 10 7 19 26 33
73 11 34 -7 26 -23 -10z"/>
<path d="M3935 275 c-17 -38 -54 -115 -83 -172 l-52 -103 100 0 100 0 -1 83
c0 56 -3 75 -9 61 -10 -25 -30 -41 -30 -24 0 6 9 30 20 52 11 23 20 60 20 82
l0 41 -35 -73 c-19 -41 -35 -79 -35 -87 0 -7 -7 -18 -15 -25 -20 -16 -20 -20
20 104 42 127 42 158 0 61z m-42 -220 c-3 -9 -8 -14 -10 -11 -3 3 -2 9 2 15 9
16 15 13 8 -4z"/>
<path d="M2080 270 c-23 -32 -20 -50 9 -50 20 0 47 52 36 69 -10 18 -22 13
-45 -19z"/>
<path d="M2386 194 c-14 -20 -16 -28 -6 -34 29 -18 73 21 55 50 -10 17 -29 11
-49 -16z"/>
<path d="M3754 75 c-16 -33 -30 -63 -32 -67 -2 -5 5 -8 16 -8 16 0 24 12 37
56 23 80 13 88 -21 19z"/>
<path d="M58 83 c7 -3 16 -2 19 1 4 3 -2 6 -13 5 -11 0 -14 -3 -6 -6z"/>
<path d="M3066 68 c-3 -7 -7 -25 -10 -40 -6 -28 -6 -28 44 -28 51 0 67 13 29
25 -11 4 -18 9 -15 12 3 3 1 14 -5 24 -11 22 -38 25 -43 7z"/>
</g>
</svg>
